<svg width="101" height="66" viewBox="0 0 101 66" fill="none" xmlns="http://www.w3.org/2000/svg">
<path d="M5.184 51.536H6.72C7.584 51.536 8.272 51.336 8.784 50.936C9.296 50.536 9.552 49.952 9.552 49.184C9.552 48.4 9.312 47.816 8.832 47.432C8.352 47.048 7.664 46.856 6.768 46.856C6.448 46.856 6.16 46.864 5.904 46.88C5.648 46.896 5.408 46.928 5.184 46.976V51.536ZM6.936 54.248H1.752V45.704C1.752 45.4 1.84 45.168 2.016 45.008C2.192 44.832 2.424 44.688 2.712 44.576C3.224 44.4 3.84 44.272 4.56 44.192C5.28 44.112 5.944 44.072 6.552 44.072C8.696 44.072 10.312 44.536 11.4 45.464C12.488 46.376 13.032 47.608 13.032 49.16C13.032 50.184 12.792 51.08 12.312 51.848C11.832 52.6 11.136 53.192 10.224 53.624C9.328 54.04 8.232 54.248 6.936 54.248ZM1.752 52.736H5.208V58.976C5.048 59.008 4.816 59.048 4.512 59.096C4.224 59.144 3.92 59.168 3.6 59.168C2.928 59.168 2.448 59.048 2.16 58.808C1.888 58.552 1.752 58.136 1.752 57.56V52.736ZM26.3417 53.264C26.3417 54.512 26.0937 55.592 25.5977 56.504C25.1017 57.416 24.4057 58.12 23.5097 58.616C22.6137 59.112 21.5577 59.36 20.3417 59.36C19.1257 59.36 18.0617 59.12 17.1497 58.64C16.2537 58.144 15.5577 57.44 15.0617 56.528C14.5657 55.616 14.3177 54.528 14.3177 53.264C14.3177 52.016 14.5657 50.944 15.0617 50.048C15.5737 49.136 16.2777 48.432 17.1737 47.936C18.0857 47.44 19.1417 47.192 20.3417 47.192C21.5417 47.192 22.5897 47.44 23.4857 47.936C24.3817 48.432 25.0777 49.136 25.5737 50.048C26.0857 50.96 26.3417 52.032 26.3417 53.264ZM20.3177 49.832C19.5337 49.832 18.9097 50.136 18.4457 50.744C17.9817 51.336 17.7497 52.176 17.7497 53.264C17.7497 54.384 17.9737 55.24 18.4217 55.832C18.8857 56.424 19.5257 56.72 20.3417 56.72C21.1417 56.72 21.7657 56.424 22.2137 55.832C22.6777 55.224 22.9097 54.368 22.9097 53.264C22.9097 52.192 22.6777 51.352 22.2137 50.744C21.7657 50.136 21.1337 49.832 20.3177 49.832ZM28.5544 44.192C28.5544 43.68 28.7304 43.248 29.0824 42.896C29.4344 42.544 29.8904 42.368 30.4504 42.368C31.0104 42.368 31.4664 42.544 31.8184 42.896C32.1704 43.248 32.3464 43.68 32.3464 44.192C32.3464 44.704 32.1704 45.144 31.8184 45.512C31.4664 45.864 31.0104 46.04 30.4504 46.04C29.8904 46.04 29.4344 45.864 29.0824 45.512C28.7304 45.144 28.5544 44.704 28.5544 44.192ZM28.7704 52.664H32.1304V58.976C31.9864 59.008 31.7784 59.048 31.5064 59.096C31.2344 59.144 30.9384 59.168 30.6184 59.168C29.9784 59.168 29.5064 59.056 29.2024 58.832C28.9144 58.608 28.7704 58.2 28.7704 57.608V52.664ZM32.1304 54.392H28.7704V47.648C28.9144 47.616 29.1224 47.576 29.3944 47.528C29.6664 47.48 29.9624 47.456 30.2824 47.456C30.9224 47.456 31.3864 47.568 31.6744 47.792C31.9784 48.016 32.1304 48.432 32.1304 49.04V54.392ZM45.9203 51.56V53.84H42.5843V51.656C42.5843 51.032 42.4003 50.576 42.0323 50.288C41.6643 49.984 41.1763 49.832 40.5683 49.832C40.1363 49.832 39.7443 49.888 39.3923 50C39.0403 50.096 38.7203 50.224 38.4323 50.384V53.84H35.0963V50.048C35.0963 49.648 35.1763 49.328 35.3363 49.088C35.5123 48.832 35.7603 48.592 36.0803 48.368C36.5763 48.032 37.2163 47.752 38.0003 47.528C38.7843 47.304 39.6563 47.192 40.6163 47.192C42.2963 47.192 43.6003 47.568 44.5283 48.32C45.4563 49.056 45.9203 50.136 45.9203 51.56ZM35.0963 52.712H38.4323V58.976C38.2883 59.008 38.0803 59.048 37.8083 59.096C37.5363 59.144 37.2403 59.168 36.9203 59.168C36.2963 59.168 35.8323 59.056 35.5283 58.832C35.2403 58.608 35.0963 58.2 35.0963 57.608V52.712ZM42.5843 52.712H45.9203V58.976C45.7763 59.008 45.5683 59.048 45.2963 59.096C45.0243 59.144 44.7363 59.168 44.4323 59.168C43.7923 59.168 43.3203 59.056 43.0163 58.832C42.7283 58.608 42.5843 58.2 42.5843 57.608V52.712ZM48.8546 52.664H52.1906V55.328C52.1906 55.808 52.3346 56.152 52.6226 56.36C52.9266 56.568 53.3426 56.672 53.8706 56.672C54.1266 56.672 54.3906 56.648 54.6626 56.6C54.9506 56.536 55.1986 56.464 55.4066 56.384C55.5346 56.512 55.6466 56.68 55.7426 56.888C55.8386 57.08 55.8866 57.312 55.8866 57.584C55.8866 58.08 55.6626 58.496 55.2146 58.832C54.7826 59.168 54.0626 59.336 53.0546 59.336C51.7426 59.336 50.7106 59.04 49.9586 58.448C49.2226 57.856 48.8546 56.896 48.8546 55.568V52.664ZM50.9426 50.384V47.792H55.5986C55.6786 47.92 55.7506 48.096 55.8146 48.32C55.8946 48.544 55.9346 48.792 55.9346 49.064C55.9346 49.512 55.8306 49.848 55.6226 50.072C55.4146 50.28 55.1346 50.384 54.7826 50.384H50.9426ZM52.1906 53.288H48.8546V44.648C48.9986 44.6 49.2066 44.552 49.4786 44.504C49.7666 44.456 50.0626 44.432 50.3666 44.432C50.9906 44.432 51.4466 44.544 51.7346 44.768C52.0386 44.992 52.1906 45.4 52.1906 45.992V53.288ZM67.3262 55.688C67.3262 56.84 66.8942 57.744 66.0302 58.4C65.1662 59.056 63.9182 59.384 62.2862 59.384C60.9742 59.384 59.8942 59.192 59.0462 58.808C58.2142 58.408 57.7982 57.856 57.7982 57.152C57.7982 56.848 57.8702 56.576 58.0142 56.336C58.1582 56.08 58.3342 55.88 58.5422 55.736C59.0062 56.008 59.5342 56.256 60.1262 56.48C60.7182 56.704 61.3982 56.816 62.1662 56.816C63.3982 56.816 64.0142 56.448 64.0142 55.712C64.0142 55.408 63.9022 55.168 63.6782 54.992C63.4542 54.8 63.1022 54.656 62.6222 54.56L61.4702 54.272C60.2382 54.016 59.3182 53.608 58.7102 53.048C58.1022 52.488 57.7982 51.728 57.7982 50.768C57.7982 49.68 58.2382 48.808 59.1182 48.152C59.9982 47.496 61.1902 47.168 62.6942 47.168C63.4782 47.168 64.1742 47.248 64.7822 47.408C65.4062 47.552 65.8942 47.776 66.2462 48.08C66.6142 48.384 66.7982 48.752 66.7982 49.184C66.7982 49.488 66.7342 49.76 66.6062 50C66.4782 50.224 66.3182 50.408 66.1262 50.552C65.9502 50.44 65.6862 50.32 65.3342 50.192C64.9822 50.064 64.5902 49.96 64.1582 49.88C63.7422 49.784 63.3422 49.736 62.9582 49.736C62.3822 49.736 61.9182 49.824 61.5662 50C61.2302 50.176 61.0622 50.432 61.0622 50.768C61.0622 50.992 61.1582 51.192 61.3502 51.368C61.5422 51.528 61.8782 51.664 62.3582 51.776L63.4142 52.016C64.8062 52.336 65.8062 52.792 66.4142 53.384C67.0222 53.976 67.3262 54.744 67.3262 55.688ZM73.3637 51.536H74.8997C75.7637 51.536 76.4517 51.336 76.9637 50.936C77.4757 50.536 77.7317 49.952 77.7317 49.184C77.7317 48.4 77.4917 47.816 77.0117 47.432C76.5317 47.048 75.8437 46.856 74.9477 46.856C74.6277 46.856 74.3397 46.864 74.0837 46.88C73.8277 46.896 73.5877 46.928 73.3637 46.976V51.536ZM75.1157 54.248H69.9317V45.704C69.9317 45.4 70.0197 45.168 70.1957 45.008C70.3717 44.832 70.6037 44.688 70.8917 44.576C71.4037 44.4 72.0197 44.272 72.7397 44.192C73.4597 44.112 74.1237 44.072 74.7317 44.072C76.8757 44.072 78.4917 44.536 79.5797 45.464C80.6677 46.376 81.2117 47.608 81.2117 49.16C81.2117 50.184 80.9717 51.08 80.4917 51.848C80.0117 52.6 79.3157 53.192 78.4037 53.624C77.5077 54.04 76.4117 54.248 75.1157 54.248ZM69.9317 52.736H73.3877V58.976C73.2277 59.008 72.9957 59.048 72.6917 59.096C72.4037 59.144 72.0997 59.168 71.7797 59.168C71.1077 59.168 70.6277 59.048 70.3397 58.808C70.0677 58.552 69.9317 58.136 69.9317 57.56V52.736ZM87.8454 56.864C88.2614 56.864 88.6454 56.824 88.9974 56.744C89.3654 56.664 89.6374 56.568 89.8134 56.456V54.008L87.6534 54.2C87.0774 54.248 86.6294 54.376 86.3094 54.584C85.9894 54.792 85.8294 55.096 85.8294 55.496C85.8294 55.912 85.9894 56.248 86.3094 56.504C86.6294 56.744 87.1414 56.864 87.8454 56.864ZM87.7254 47.192C89.3414 47.192 90.6294 47.536 91.5894 48.224C92.5654 48.896 93.0534 49.96 93.0534 51.416V56.888C93.0534 57.288 92.9494 57.608 92.7414 57.848C92.5494 58.072 92.3014 58.28 91.9974 58.472C91.5334 58.744 90.9494 58.96 90.2454 59.12C89.5414 59.28 88.7414 59.36 87.8454 59.36C86.2294 59.36 84.9414 59.048 83.9814 58.424C83.0374 57.8 82.5654 56.864 82.5654 55.616C82.5654 54.528 82.9014 53.696 83.5734 53.12C84.2454 52.544 85.2454 52.192 86.5734 52.064L89.7894 51.728V51.368C89.7894 50.792 89.5734 50.376 89.1414 50.12C88.7094 49.864 88.1014 49.736 87.3174 49.736C86.7094 49.736 86.1094 49.816 85.5174 49.976C84.9254 50.12 84.3974 50.296 83.9334 50.504C83.7574 50.376 83.6054 50.192 83.4774 49.952C83.3494 49.696 83.2854 49.432 83.2854 49.16C83.2854 48.52 83.6294 48.056 84.3174 47.768C84.7814 47.576 85.3174 47.432 85.9254 47.336C86.5334 47.24 87.1334 47.192 87.7254 47.192ZM96.0606 52.664L99.3966 52.76V58.976C99.2526 59.008 99.0446 59.048 98.7726 59.096C98.5006 59.144 98.2046 59.168 97.8846 59.168C97.2606 59.168 96.7966 59.056 96.4926 58.832C96.2046 58.608 96.0606 58.2 96.0606 57.608V52.664ZM99.3966 54.488L96.0606 54.392V43.376C96.2046 43.344 96.4126 43.304 96.6846 43.256C96.9566 43.208 97.2526 43.184 97.5726 43.184C98.2126 43.184 98.6766 43.296 98.9646 43.52C99.2526 43.744 99.3966 44.152 99.3966 44.744V54.488Z" fill="black"/>
<path fill-rule="evenodd" clip-rule="evenodd" d="M43.8915 7.95843V6.26582C43.8915 4.60402 44.535 3.01029 45.6804 1.83522C46.8258 0.660147 48.3793 0 49.9992 0C51.619 0 53.1726 0.660147 54.318 1.83522C55.4634 3.01029 56.1069 4.60402 56.1069 6.26582V7.95843C58.2193 8.02025 59.506 8.24248 60.4914 9.07291C61.8432 10.2091 62.2178 12.1373 62.9719 15.9954L63.9491 21.0081C65.0306 26.5554 65.5713 29.3291 64.1055 31.1654C62.638 33 59.8806 33 54.3641 33H45.6342C40.1194 33 37.3603 33 35.8945 31.1654C34.4287 29.3307 34.9694 26.5571 36.0509 21.0081L37.0281 15.9954C37.7806 12.1373 38.1568 10.2091 39.507 9.07291C40.494 8.24415 41.7807 8.02025 43.8931 7.95843H43.8915ZM46.3346 6.26582C46.3346 5.26874 46.7207 4.3125 47.4079 3.60746C48.0952 2.90242 49.0273 2.50633 49.9992 2.50633C50.9711 2.50633 51.9032 2.90242 52.5905 3.60746C53.2777 4.3125 53.6638 5.26874 53.6638 6.26582V7.93671H46.3346V6.26582ZM49.9992 25.0633C49.2412 25.0633 48.5019 24.8223 47.883 24.3734C47.264 23.9246 46.7959 23.29 46.5431 22.557C46.4915 22.3993 46.4099 22.2537 46.303 22.1287C46.1961 22.0037 46.066 21.9018 45.9203 21.8289C45.7746 21.7561 45.6162 21.7136 45.4544 21.7042C45.2925 21.6947 45.1305 21.7184 44.9776 21.7739C44.8248 21.8293 44.6843 21.9154 44.5642 22.0271C44.4441 22.1388 44.3469 22.2739 44.2783 22.4246C44.2096 22.5752 44.1709 22.7384 44.1643 22.9046C44.1578 23.0707 44.1835 23.2366 44.24 23.3924C44.6612 24.6144 45.4412 25.6724 46.4727 26.4207C47.5043 27.169 48.7366 27.5708 50 27.5708C51.2634 27.5708 52.4957 27.169 53.5273 26.4207C54.5588 25.6724 55.3388 24.6144 55.76 23.3924C55.8679 23.0789 55.8501 22.7342 55.7104 22.4341C55.5706 22.1341 55.3204 21.9033 55.0148 21.7925C54.7092 21.6817 54.3732 21.7 54.0807 21.8434C53.7883 21.9868 53.5633 22.2434 53.4553 22.557C53.2024 23.29 52.7343 23.9246 52.1154 24.3734C51.4965 24.8223 50.7571 25.0633 49.9992 25.0633Z" fill="#1E1E1E"/>
</svg>
